Coordinates
version=1
nRows=29
nColumns=22
inDegrees=yes

Units are S.I. units (second, meters, Newtons, ...)
If the header above contains a line with 'inDegrees', this indicates whether rotational values are in degrees (yes) or radians (no).

endheader
time	pelvis_tilt	pelvis_list	pelvis_rotation	pelvis_tx	pelvis_ty	pelvis_tz	hip_flexion_r	hip_adduction_r	hip_rotation_r	knee_angle_r	ankle_angle_r	subtalar_angle_r	hip_flexion_l	hip_adduction_l	hip_rotation_l	knee_angle_l	ankle_angle_l	subtalar_angle_l	lumbar_extension	lumbar_bending	lumbar_rotation
      0.01000000	     -0.14074796	     -4.50117157	     -1.64821508	     -1.39021710	      1.01326235	     -0.58153053	     -0.79752752	      2.56454432	     -5.67607836	     -8.70765232	      8.71734388	     -0.85147089	     -2.97039422	     -6.84727137	    -13.63547367	     -7.80108258	     11.57115189	     -0.79416448	     -3.75402479	      1.03276048	     -3.26458715
      0.02000000	     -0.14281167	     -4.50292970	     -1.64791732	     -1.39021804	      1.01325723	     -0.58153197	     -0.79690225	      2.56669982	     -5.67539409	     -8.70458042	      8.71813428	     -0.85141012	     -2.96978636	     -6.84904236	    -13.63627435	     -7.79849732	     11.57086847	     -0.79212617	     -3.75909284	      1.02937644	     -3.26838718
      0.03000000	     -0.14538987	     -4.50474602	     -1.64798471	     -1.39021337	      1.01324970	     -0.58153358	     -0.79620708	      2.56881472	     -5.67435674	     -8.70150329	      8.71882922	     -0.85131097	     -2.96965633	     -6.85072101	    -13.63748860	     -7.79499269	     11.57061328	     -0.78990600	     -3.76484259	      1.02528409	     -3.27410541
      0.04000000	     -0.14837034	     -4.50652063	     -1.64916021	     -1.39020732	      1.01324123	     -0.58153589	     -0.79525189	      2.57060682	     -5.67344860	     -8.69818431	      8.71945587	     -0.85118009	     -2.96956645	     -6.85216251	    -13.63886431	     -7.79135757	     11.57041781	     -0.78777191	     -3.77158746	      1.02079593	     -3.28066871
      0.05000000	     -0.15149113	     -4.50828460	     -1.65139996	     -1.39020217	      1.01323213	     -0.58153786	     -0.79409774	      2.57214580	     -5.67280860	     -8.69473790	      8.72003587	     -0.85102091	     -2.96913160	     -6.85358199	    -13.64027693	     -7.78817163	     11.57032314	     -0.78582535	     -3.77943579	      1.01572397	     -3.28729476
      0.06000000	     -0.15454650	     -4.51013197	     -1.65466244	     -1.39019976	      1.01322364	     -0.58154061	     -0.79289981	      2.57355236	     -5.67250709	     -8.69145598	      8.72055365	     -0.85084270	     -2.96815423	     -6.85494757	    -13.64154517	     -7.78601585	     11.57037229	     -0.78415123	     -3.78820567	      1.01013506	     -3.29332930
      0.07000000	     -0.15704731	     -4.51197789	     -1.65883039	     -1.39020214	      1.01321570	     -0.58154254	     -0.79158826	      2.57504693	     -5.67240533	     -8.68839921	      8.72100818	     -0.85063003	     -2.96668037	     -6.85636434	    -13.64269712	     -7.78529625	     11.57058994	     -0.78257702	     -3.79811313	      1.00380014	     -3.29890963
      0.08000000	     -0.14523087	     -4.50943702	     -1.65847630	     -1.39022491	      1.01322971	     -0.58154877	     -0.80172440	      2.57148170	     -5.66413184	     -8.69167608	      8.72130166	     -0.84931348	     -2.96744961	     -6.85559042	    -13.65230448	     -7.80664760	     11.57285210	     -0.77076130	     -3.82803059	      0.99071362	     -3.31809626
      0.09000000	     -0.14806394	     -4.51204139	     -1.66481510	     -1.39022963	      1.01322321	     -0.58155147	     -0.80001596	      2.57284844	     -5.66642641	     -8.68795886	      8.72187187	     -0.84910120	     -2.96525820	     -6.85757620	    -13.65222271	     -7.80578369	     11.57380338	     -0.76971960	     -3.83767242	      0.98469776	     -3.31874702
      0.10000000	     -0.13829192	     -4.51348751	     -1.67153461	     -1.39025445	      1.01323658	     -0.58154415	     -0.80494261	      2.57323817	     -5.66861609	     -8.69506475	      8.72066882	     -0.84754410	     -2.96437921	     -6.86092741	    -13.65506365	     -7.82952258	     11.58054468	     -0.76261390	     -3.86440740	      0.97148820	     -3.30738413
      0.11000000	     -0.14026380	     -4.51653574	     -1.67820431	     -1.39026115	      1.01323590	     -0.58154785	     -0.80272825	      2.57515691	     -5.66990463	     -8.69317013	      8.72082140	     -0.84725037	     -2.96243952	     -6.86315941	    -13.65561866	     -7.82962153	     11.58181810	     -0.76190280	     -3.87367139	      0.96471399	     -3.30895822
      0.12000000	     -0.12895729	     -4.51899521	     -1.68759767	     -1.39029954	      1.01325504	     -0.58154204	     -0.80317091	      2.57571834	     -5.66597219	     -8.71049038	      8.71682484	     -0.84492987	     -2.96011291	     -6.86765624	    -13.66406349	     -7.85838512	     11.59113344	     -0.75708428	     -3.90304384	      0.95314512	     -3.29724839
      0.13000000	     -0.13044162	     -4.52263373	     -1.69490563	     -1.39030221	      1.01325878	     -0.58154251	     -0.80127840	      2.57844963	     -5.66712864	     -8.70925180	      8.71688719	     -0.84454986	     -2.95884499	     -6.87060522	    -13.66488397	     -7.85918178	     11.59237207	     -0.75672211	     -3.90967170	      0.94487688	     -3.29822250
      0.14000000	     -0.12221002	     -4.52606638	     -1.70746530	     -1.39033336	      1.01327631	     -0.58153471	     -0.79824063	      2.58009340	     -5.66152202	     -8.72706393	      8.71165284	     -0.84150995	     -2.95551909	     -6.87569655	    -13.67748567	     -7.88585120	     11.60083641	     -0.75486797	     -3.93093256	      0.93347051	     -3.28014495
      0.15000000	     -0.12391317	     -4.52985905	     -1.71516992	     -1.39034001	      1.01328174	     -0.58154319	     -0.79588794	      2.58269570	     -5.66237956	     -8.72548163	      8.71165272	     -0.84105788	     -2.95426482	     -6.87784435	    -13.67906806	     -7.88579646	     11.60196364	     -0.75481926	     -3.93602285	      0.92600994	     -3.28120668
      0.16000000	     -0.12469064	     -4.53385411	     -1.72368538	     -1.39034490	      1.01328899	     -0.58154895	     -0.79362217	      2.58564117	     -5.66291967	     -8.72579778	      8.71076703	     -0.84035818	     -2.95372063	     -6.88048780	    -13.68118870	     -7.88801236	     11.60306143	     -0.75500331	     -3.93980039	      0.91702165	     -3.28099148
      0.17000000	     -0.12537453	     -4.53788229	     -1.73316448	     -1.39035303	      1.01329678	     -0.58155824	     -0.79095642	      2.58821546	     -5.66330121	     -8.72676997	      8.70907842	     -0.83940116	     -2.95317306	     -6.88289275	    -13.68445872	     -7.89089362	     11.60418516	     -0.75544580	     -3.94311426	      0.90794257	     -3.27976850
      0.18000000	     -0.12850740	     -4.53863365	     -1.76749372	     -1.39038422	      1.01330289	     -0.58154541	     -0.77161145	      2.58484812	     -5.64543105	     -8.74928299	      8.68691564	     -0.82786710	     -2.94572741	     -6.88248056	    -13.74499620	     -7.90896509	     11.61540432	     -0.76200852	     -3.94658112	      0.89470159	     -3.23862943
      0.19000000	     -0.13045012	     -4.54361147	     -1.77699997	     -1.39038534	      1.01330726	     -0.58156094	     -0.77024484	      2.58815393	     -5.64510274	     -8.74639564	      8.68791125	     -0.82728244	     -2.94664149	     -6.88526392	    -13.74611195	     -7.90804283	     11.61545452	     -0.76223920	     -3.94554828	      0.88567649	     -3.24234196
      0.20000000	     -0.13290349	     -4.54885109	     -1.78760263	     -1.39038170	      1.01331123	     -0.58157957	     -0.76873973	      2.59129782	     -5.64429872	     -8.74319432	      8.68799332	     -0.82632343	     -2.94833713	     -6.88782035	    -13.74913494	     -7.90595776	     11.61552921	     -0.76265572	     -3.94280512	      0.87632470	     -3.24651821
      0.21000000	     -0.15270487	     -4.55408044	     -1.82542542	     -1.39034747	      1.01329761	     -0.58156443	     -0.75526275	      2.59546727	     -5.59057299	     -8.72953470	      8.67424595	     -0.80667260	     -2.94591539	     -6.88844084	    -13.80662253	     -7.88754651	     11.60617705	     -0.76818847	     -3.91292165	      0.86772651	     -3.22380899
      0.22000000	     -0.15413005	     -4.56011941	     -1.83545444	     -1.39033964	      1.01330384	     -0.58158956	     -0.75426902	      2.59828500	     -5.59120763	     -8.72824748	      8.67405298	     -0.80596681	     -2.94848256	     -6.89206190	    -13.80735170	     -7.88689014	     11.60675933	     -0.76839988	     -3.91215089	      0.85728895	     -3.22941760
      0.23000000	     -0.15599917	     -4.56667966	     -1.84667542	     -1.39032031	      1.01331026	     -0.58161192	     -0.75406918	      2.60220454	     -5.59028532	     -8.72636926	      8.67306080	     -0.80485350	     -2.95249712	     -6.89571508	    -13.81025775	     -7.88436064	     11.60756510	     -0.76863565	     -3.90904255	      0.84566295	     -3.23700972
      0.24000000	     -0.16316556	     -4.57457652	     -1.86501157	     -1.39026027	      1.01331169	     -0.58164129	     -0.75697190	      2.60711635	     -5.56337613	     -8.71269610	      8.66222018	     -0.79655008	     -2.96612887	     -6.89735501	    -13.84390878	     -7.85629384	     11.61136544	     -0.76899803	     -3.89284862	      0.84108792	     -3.25708662
      0.25000000	     -0.16482885	     -4.58212632	     -1.87757034	     -1.39024545	      1.01332072	     -0.58166525	     -0.75729474	      2.61167166	     -5.56194431	     -8.70949890	      8.66092477	     -0.79525276	     -2.96867765	     -6.90240655	    -13.84500156	     -7.85691741	     11.61105739	     -0.76893345	     -3.89323695	      0.82764725	     -3.26013447
      0.26000000	     -0.16117186	     -4.60177893	     -1.92647709	     -1.39020003	      1.01334786	     -0.58163474	     -0.77996402	      2.63196415	     -5.46979889	     -8.67567747	      8.62392017	     -0.76733544	     -2.99330669	     -6.91831037	    -13.91560406	     -7.84364156	     11.60787230	     -0.76304709	     -3.89572734	      0.82725152	     -3.22207775
      0.27000000	     -0.16293285	     -4.60967660	     -1.93855580	     -1.39018024	      1.01335683	     -0.58167668	     -0.78002295	      2.63569656	     -5.47020967	     -8.67376109	      8.62374751	     -0.76652913	     -2.99621264	     -6.92240405	    -13.91670683	     -7.84320918	     11.60877616	     -0.76286275	     -3.89633012	      0.81478669	     -3.22776028
      0.28000000	     -0.16584617	     -4.62097468	     -1.96342027	     -1.39012606	      1.01336646	     -0.58171050	     -0.78946932	      2.64303646	     -5.43542347	     -8.65495054	      8.61309139	     -0.75741104	     -3.00970250	     -6.92826998	    -13.95491021	     -7.82740889	     11.61916281	     -0.76006868	     -3.88952236	      0.80870395	     -3.23353775
      0.29000000	     -0.16477849	     -4.63352414	     -1.99227322	     -1.39011195	      1.01338434	     -0.58173324	     -0.79816393	      2.65250292	     -5.40136102	     -8.63963749	      8.59945990	     -0.74812349	     -3.01254229	     -6.93801393	    -13.97499642	     -7.84141574	     11.62044048	     -0.75505261	     -3.89582368	      0.79707363	     -3.20049528
